<?xml version="1.0" encoding="iso-8859-1"?>
<!-- Generator: Adobe Illustrator 19.0.0, SVG Export Plug-In . SVG Version: 6.00 Build 0)  -->
<svg version="1.1" id="Capa_1" xmlns="http://www.w3.org/2000/svg" xmlns:xlink="http://www.w3.org/1999/xlink" x="0px" y="0px"
	 viewBox="0 0 512 512" style="enable-background:new 0 0 512 512;" xml:space="preserve">
<g>
	<g>
		<path d="M364.208,93.281C341.298,36.914,287.479,0,226,0C143.295,0,76,67.295,76,150c0,0.41,0,0.835,0.015,1.245
			C33.49,158.408,0,196.483,0,241c0,49.629,41.371,90,91,90h60v45c0,8.291,6.709,15,15,15s15-6.709,15-15v-45h150v45
			c0,8.291,6.709,15,15,15c8.291,0,15-6.709,15-15v-45h31c66.167,0,120-53.833,120-120C512,136.029,440.79,74.663,364.208,93.281z"
			/>
	</g>
</g>
<g>
	<g>
		<path d="M76,361c-8.291,0-15,6.709-15,15v60c0,8.291,6.709,15,15,15s15-6.709,15-15v-60C91,367.709,84.291,361,76,361z"/>
	</g>
</g>
<g>
	<g>
		<path d="M166,421c-8.291,0-15,6.709-15,15v61c0,8.291,6.709,15,15,15s15-6.709,15-15v-61C181,427.709,174.291,421,166,421z"/>
	</g>
</g>
<g>
	<g>
		<path d="M256,361c-8.291,0-15,6.709-15,15v60c0,8.291,6.709,15,15,15s15-6.709,15-15v-60C271,367.709,264.291,361,256,361z"/>
	</g>
</g>
<g>
	<g>
		<path d="M346,421c-8.291,0-15,6.709-15,15v61c0,8.291,6.709,15,15,15c8.291,0,15-6.709,15-15v-61C361,427.709,354.291,421,346,421
			z"/>
	</g>
</g>
<g>
	<g>
		<path d="M436,361c-8.291,0-15,6.709-15,15v60c0,8.291,6.709,15,15,15c8.291,0,15-6.709,15-15v-60C451,367.709,444.291,361,436,361
			z"/>
	</g>
</g>
<g>
</g>
<g>
</g>
<g>
</g>
<g>
</g>
<g>
</g>
<g>
</g>
<g>
</g>
<g>
</g>
<g>
</g>
<g>
</g>
<g>
</g>
<g>
</g>
<g>
</g>
<g>
</g>
<g>
</g>
</svg>
